<?xml version="1.0"?>
<svg width="520" height="290" xmlns="http://www.w3.org/2000/svg" xmlns:svg="http://www.w3.org/2000/svg">
 <defs>
  <marker id="arrowhead" markerHeight="6" markerWidth="8" orient="auto" refX="7" refY="3">
   <polygon fill="#37474F" id="svg_1" points="0 0, 8 3, 0 6"/>
  </marker>
  <marker id="arrowhead-indigo" markerHeight="6" markerWidth="8" orient="auto" refX="7" refY="3">
   <polygon fill="#1A237E" id="svg_2" points="0 0, 8 3, 0 6"/>
  </marker>
 </defs>
 <!-- CIRCLES -->
 <!-- ARROWS -->
 <g class="layer">
  <title>Layer 1</title>
  <rect fill="white" height="290" id="svg_3" transform="matrix(1 0 0 1 -6 0)" width="520"/>
  <g id="environment">
   <ellipse cx="70" cy="125" fill="#B3E5FC" id="env-circle" rx="55" ry="35" stroke="#03A9F4" stroke-width="2"/>
   <text fill="#03A9F4" font-family="Arial" font-size="13" font-weight="500" id="env-label" text-anchor="middle" x="70" y="130">Environment</text>
  </g>
  <!-- Agent System Box -->
  <g id="agent-system-box">
   <rect x="175" y="40" width="330" height="235" fill="none" stroke="#5C6BC0" stroke-width="2" rx="10" ry="10"/>
   <text fill="#5C6BC0" font-family="Arial" font-size="14" font-weight="600" text-anchor="middle" x="340" y="30">Agent System</text>
  </g>
  <g id="system">
   <ellipse cx="250" cy="125" fill="#C5CAE9" id="sys-circle" rx="55" ry="40" stroke="#3F51B5" stroke-width="2"/>
   <text fill="#3F51B5" font-family="Arial" font-size="13" font-weight="500" id="sys-label2" text-anchor="middle" x="250" y="130">Agent Loop</text>
  </g>
  <g id="llm">
   <ellipse cx="430" cy="125" fill="#B2DFDB" id="llm-circle" rx="55" ry="35" stroke="#26A69A" stroke-width="2"/>
   <text fill="#26A69A" font-family="Arial" font-size="13" font-weight="500" id="llm-label" text-anchor="middle" x="430" y="130">LLM</text>
  </g>
  <g id="memory">
   <ellipse cx="250" cy="220" fill="#C5CAE9" id="mem-circle" rx="55" ry="35" stroke="#3F51B5" stroke-width="2"/>
   <text fill="#3F51B5" font-family="Arial" font-size="13" font-weight="500" id="mem-label" text-anchor="middle" x="250" y="225">Memory</text>
  </g>
  <g id="arrow-observations" transform="matrix(1.06494 0 0 1.05841 -6.05195 55.976744)">
   <path d="m125,55c30,-5 55,10 75,30" fill="none" id="obs-path" marker-end="url(#arrowhead)" stroke="#37474F" stroke-width="1.5" transform="matrix(0.88 0 0 1 18 6)"/>
   <text fill="#37474F" font-family="Arial" font-size="9" id="obs-label" text-anchor="middle" transform="rotate(8.17048 167.045 58.8471) matrix(0.955083 0.296339 -0.296339 0.955083 26.6155 -43.01)" x="164.31" y="58.81">observations</text>
  </g>
  <g id="arrow-actions" transform="matrix(0.946709 0.264439 -0.252038 0.892398 33.2367 10.8042)">
   <text fill="#37474F" font-family="Arial" font-size="9" id="act-label" text-anchor="middle" transform="matrix(0.998589 0.0530956 -0.0530956 0.998589 5.69904 -10.4398)" x="162.05" y="126">actions</text>
  </g>
  <g id="arrow-query" transform="matrix(0.916563 0 0 1 22.2945 5)">
   <path d="m308,100c22,-14 52,-14 73,0" fill="none" id="query-path" marker-end="url(#arrowhead)" stroke="#37474F" stroke-width="1.5" transform="rotate(-2.64937 346.5 101.75) matrix(0.998931 0.0462222 -0.0462222 0.998931 6.74777 -8.82229)"/>
   <text fill="#37474F" font-family="Arial" font-size="9" id="query-label" text-anchor="middle" transform="matrix(1 0 0 1 2 4)" x="343" y="89">query</text>
  </g>
  <g id="acdl-highlight" transform="matrix(1 0 0 1 10 18)">
   <ellipse cx="342" cy="90" fill="none" id="acdl-ellipse" rx="50" ry="18" stroke="#1A237E" stroke-dasharray="4,2" stroke-width="2" transform="matrix(0.731474 0 0 1.12262 80.7428 -10.9545)"/>
   <text fill="#1A237E" font-family="Arial" font-size="12" font-weight="600" id="acdl-label" text-anchor="middle" transform="matrix(1 0 0 1 -33 -7)" x="415" y="55">ACDL</text>
   <path d="m400,58l-18,16" fill="none" id="acdl-pointer" marker-end="url(#arrowhead-indigo)" stroke="#1A237E" stroke-width="1.5" transform="matrix(1 0 0 1 -24 -5)"/>
  </g>
  <g id="arrow-response" transform="translate(-2 5)">
   <path d="m378,140c-20,12 -48,12 -73,0" fill="none" id="resp-path" marker-end="url(#arrowhead)" stroke="#37474F" stroke-width="1.5" transform="matrix(0.891771 0 0 1 37.9034 -8)"/>
   <text fill="#37474F" font-family="Arial" font-size="9" id="resp-label" text-anchor="middle" x="345" y="151">response</text>
   <path d="m189.61,108.68c-23.68,2.94 -51.94,-6.1 -68.37,-24.42" fill="none" id="svg_5" marker-end="url(#arrowhead)" stroke="#37474F" stroke-width="1.5" transform="matrix(1 0 0 1 8 2)"/>
  </g>
  <g id="arrow-store">
   <path d="m230,165c-5,15 -5,25 0,40" fill="none" id="store-path" marker-end="url(#arrowhead)" stroke="#37474F" stroke-width="1.5"/>
   <text fill="#37474F" font-family="Arial" font-size="9" id="store-label" text-anchor="middle" x="215" y="195">store</text>
  </g>
  <g id="arrow-retrieve">
   <path d="m270,185c5,-15 5,-25 0,-40" fill="none" id="retrieve-path" marker-end="url(#arrowhead)" stroke="#37474F" stroke-width="1.5"/>
   <text fill="#37474F" font-family="Arial" font-size="9" id="retrieve-label" text-anchor="middle" x="285" y="175">retrieve</text>
  </g>
 </g>
</svg>
