<?xml version="1.0"?>
<svg width="500" height="250" xmlns="http://www.w3.org/2000/svg" xmlns:svg="http://www.w3.org/2000/svg">
 <defs>
  <marker id="arrowhead" markerHeight="6" markerWidth="8" orient="auto" refX="7" refY="3">
   <polygon fill="#37474F" id="svg_1" points="0 0, 8 3, 0 6"/>
  </marker>
  <marker id="arrowhead-indigo" markerHeight="6" markerWidth="8" orient="auto" refX="7" refY="3">
   <polygon fill="#E67E22" id="svg_2" points="0 0, 8 3, 0 6"/>
  </marker>
 </defs>
 <!-- CIRCLES -->
 <!-- ARROWS -->
 <g class="layer">
  <title>Layer 1</title>
  <rect fill="white" height="250" id="svg_3" width="500"/>
  <g id="environment">
   <ellipse cx="70" cy="70" fill="#D6EAF8" id="env-circle" rx="55" ry="35" stroke="#5DADE2" stroke-width="2"/>
   <text fill="#5DADE2" font-family="Arial" font-size="13" font-weight="600" id="env-label" text-anchor="middle" x="70" y="75">Environment</text>
  </g>
  <g id="memory" transform="matrix(1 0 0 1 -3 -12)">
   <ellipse cx="70" cy="175" fill="#E8EAF6" id="mem-circle" rx="55" ry="35" stroke="#3F51B5" stroke-width="2"/>
   <text fill="#3F51B5" font-family="Arial" font-size="13" font-weight="600" id="mem-label" text-anchor="middle" x="70" y="180">Memory</text>
  </g>
  <g id="system">
   <ellipse cx="250" cy="120" fill="#E8EAF6" id="sys-circle" rx="55" ry="40" stroke="#3F51B5" stroke-width="2"/>
   <text fill="#3F51B5" font-family="Arial" font-size="13" font-weight="600" id="sys-label1" text-anchor="middle" x="250" y="115">System/</text>
   <text fill="#3F51B5" font-family="Arial" font-size="13" font-weight="600" id="sys-label2" text-anchor="middle" x="250" y="132">Agent</text>
  </g>
  <g id="llm">
   <ellipse cx="430" cy="120" fill="#E0F2F1" id="llm-circle" rx="55" ry="35" stroke="#26A69A" stroke-width="2"/>
   <text fill="#26A69A" font-family="Arial" font-size="13" font-weight="600" id="llm-label" text-anchor="middle" x="430" y="125">LLM</text>
  </g>
  <g id="arrow-observations" transform="matrix(1.06494 0 0 1.05841 -6.05195 0.976744)">
   <path d="m125,55c30,-5 55,10 75,30" fill="none" id="obs-path" marker-end="url(#arrowhead)" stroke="#37474F" stroke-width="1.5"/>
   <text fill="#37474F" font-family="Arial" font-size="9" id="obs-label" text-anchor="middle" transform="matrix(0.955083 0.296339 -0.296339 0.955083 26.6155 -43.01)" x="162.89" y="50.87">observations</text>
  </g>
  <g id="arrow-actions" transform="translate(0 -1) translate(0 -1) translate(0 -1) matrix(0.972399 0.143619 -0.138127 0.916961 13.3283 -23.6896)">
   <text fill="#37474F" font-family="Arial" font-size="9" id="act-label" text-anchor="middle" transform="matrix(0.998589 0.0530956 -0.0530956 0.998589 5.69904 -10.4398)" x="162.05" y="126">actions</text>
  </g>
  <g id="arrow-query">
   <path d="m305,100c25,-18 55,-18 73,0" fill="none" id="query-path" marker-end="url(#arrowhead)" stroke="#37474F" stroke-width="1.5"/>
   <text fill="#37474F" font-family="Arial" font-size="9" id="query-label" text-anchor="middle" transform="matrix(1 0 0 1 2 4)" x="340" y="78">query</text>
  </g>
  <g id="acdl-highlight" transform="translate(0 0) matrix(1 0 0 1 0 0) matrix(1 0 0 1 8 5)">
   <ellipse cx="342" cy="90" fill="none" id="acdl-ellipse" rx="50" ry="18" stroke="#E67E22" stroke-dasharray="4,2" stroke-width="2" transform="matrix(0.903846 0 0 1.22449 24.8846 -24.2041)"/>
   <text fill="#E67E22" font-family="Arial" font-size="12" font-weight="600" id="acdl-label" text-anchor="middle" transform="matrix(1 0 0 1 -18 -9)" x="415" y="55">ACDL</text>
   <path d="m400,58l-18,16" fill="none" id="acdl-pointer" marker-end="url(#arrowhead-indigo)" stroke="#E67E22" stroke-width="1.5" transform="matrix(1 0 0 1 -9 -7)"/>
  </g>
  <g id="arrow-response" transform="translate(-1 0) translate(-1 0) translate(0 -1) translate(0 -1) translate(0 -1) translate(0 -1) translate(0 -1) translate(0 -1)">
   <path d="m378,140c-18,18 -48,18 -73,0" fill="none" id="resp-path" marker-end="url(#arrowhead)" stroke="#37474F" stroke-width="1.5"/>
   <text fill="#37474F" font-family="Arial" font-size="9" id="resp-label" text-anchor="middle" x="342" y="164">response</text>
  </g>
  <g id="arrow-store" transform="matrix(0.987744 0 0 1 2.50524 5)">
   <path d="m206.31,149.59c-28.47,18.53 -56.4,26.88 -79.39,15.85" fill="none" id="store-path" marker-end="url(#arrowhead)" stroke="#37474F" stroke-width="1.5" transform="matrix(0.999408 -0.0343997 0.0343997 0.999408 -8.40491 -1.17369)"/>
   <text fill="#37474F" font-family="Arial" font-size="9" id="store-label" text-anchor="middle" transform="matrix(0.943847 -0.330382 0.330382 0.943847 -52.9216 44.349)" x="172.06" y="192.47">store</text>
   <path d="m196.28,103.21c-29.21,3.9 -54.08,-1.08 -67.64,-21.19" fill="none" id="svg_4" marker-end="url(#arrowhead)" stroke="#37474F" stroke-width="1.5" transform="matrix(1 0 0 1 -5 -7)"/>
  </g>
  <g id="arrow-retrieve" transform="matrix(0.997411 -0.0719169 0.0719169 0.997411 -13.549 7.04546)">
   <path d="m125,152c25,-17 53,-20 75,-10" fill="none" id="retrieve-path" marker-end="url(#arrowhead)" stroke="#37474F" stroke-width="1.5"/>
   <text fill="#37474F" font-family="Arial" font-size="9" id="retrieve-label" text-anchor="middle" transform="rotate(2.16958 156.164 130) matrix(0.979961 -0.199192 0.199192 0.979961 -25.0918 42.3481)" x="160" y="125">retrieve</text>
  </g>
 </g>
</svg>