<?xml version="1.0"?>
<svg width="520" height="280" xmlns="http://www.w3.org/2000/svg" xmlns:svg="http://www.w3.org/2000/svg">
 <defs>
  <marker id="arrowhead" markerHeight="6" markerWidth="8" orient="auto" refX="7" refY="3">
   <polygon fill="#37474F" id="svg_1" points="0 0, 8 3, 0 6"/>
  </marker>
  <marker id="arrowhead-orange" markerHeight="6" markerWidth="8" orient="auto" refX="7" refY="3">
   <polygon fill="#ff5656" id="svg_2" points="0 0, 8 3, 0 6"/>
  </marker>
 </defs>
 <!-- Background -->
 <!-- Environment (top-left) -->
 <!-- Agent Loop (top-center) -->
 <!-- Memory (top-right) -->
 <!-- LLM (bottom-center) -->
 <!-- Arrow: observations (Environment -> Agent Loop) -->
 <!-- Arrow: actions (Agent Loop -> Environment) -->
 <!-- Arrow: retrieve (Memory -> Agent Loop) -->
 <!-- Arrow: store (Agent Loop -> Memory) -->
 <!-- Arrow: query (Agent Loop -> LLM) -->
 <!-- Arrow: response (LLM -> Agent Loop) -->
 <!-- ACDL highlight around query -->
 <g class="layer">
  <title>Layer 1</title>
  <rect fill="white" height="280" id="svg_3" width="520"/>
  <g id="environment">
   <ellipse cx="80" cy="80" fill="#CEEEFF" id="svg_4" rx="60" ry="38" stroke="#3DB8E8" stroke-width="2"/>
   <text fill="#1A9ED4" font-family="Arial" font-size="14" font-weight="500" id="svg_5" text-anchor="middle" x="80" y="85">Environment</text>
  </g>
  <g id="agent-loop">
   <ellipse cx="260" cy="80" fill="#efe0ff" id="svg_6" rx="60" ry="38" stroke="#8256b3" stroke-width="2"/>
   <text fill="#8256b3" font-family="Arial" font-size="14" font-weight="500" id="svg_7" text-anchor="middle" x="260" y="85">Agentic Loop</text>
  </g>
  <g id="memory">
   <ellipse cx="440" cy="80" fill="#efe0ff" id="svg_8" rx="55" ry="35" stroke="#8256b3" stroke-width="2"/>
   <text fill="#8256b3" font-family="Arial" font-size="14" font-weight="500" id="svg_9" text-anchor="middle" x="440" y="85">Memory</text>
  </g>
  <g id="llm">
   <ellipse cx="260" cy="210" fill="#C5EAE5" id="svg_10" rx="55" ry="35" stroke="#3BB5A5" stroke-width="2"/>
   <text fill="#1F9A8A" font-family="Arial" font-size="14" font-weight="500" id="svg_11" text-anchor="middle" x="260" y="215">LLM</text>
  </g>
  <g id="arrow-observations">
   <text fill="#37474F" font-family="Arial" font-size="10" font-style="italic" id="svg_13" text-anchor="middle" x="170" y="38">observations</text>
  </g>
  <g id="arrow-actions">
   <text fill="#37474F" font-family="Arial" font-size="10" font-style="italic" id="svg_15" text-anchor="middle" x="170" y="128">actions</text>
  </g>
  <g id="arrow-retrieve" transform="matrix(1 0 0 1 88 125)">
   <text fill="#37474F" font-family="Arial" font-size="10" font-style="italic" id="svg_17" text-anchor="middle" transform="matrix(1 0 0 1 -85 -43)" x="352" y="42">retrieve</text>
  </g>
  <g id="arrow-store">
   <text fill="#37474F" font-family="Arial" font-size="10" font-style="italic" id="svg_19" text-anchor="middle" transform="matrix(1 0 0 1 0 -86)" x="352" y="128">store</text>
  </g>
  <g id="arrow-query" transform="translate(0 1) translate(1 0) translate(1 0) translate(1 0) translate(1 0) translate(1 0) translate(1 0) translate(1 0) translate(1 0) translate(1 0) translate(1 0) translate(1 0) matrix(1 0 0 1 0 0) matrix(1 0 0 1 0 0) matrix(1 0 0 1 0 0)">
   <text fill="#37474F" font-family="Arial" font-size="10" font-style="italic" id="svg_21" text-anchor="middle" x="297" y="150">query</text>
  </g>
  <g id="arrow-response" transform="translate(0 1) translate(0 1) translate(-1 0) translate(-1 0) translate(-1 0) translate(-1 0) translate(-1 0) translate(-1 0) translate(-1 0) translate(-1 0) translate(-1 0) translate(-1 0) translate(-1 0) translate(-1 0) translate(-1 0) translate(-1 0) translate(-1 0) translate(-1 0) translate(-1 0) translate(-1 0) translate(0 -1) translate(0 -1) translate(0 -1) translate(0 -1) translate(0 -1) translate(0 -1)">
   <text fill="#37474F" font-family="Arial" font-size="10" font-style="italic" id="svg_23" text-anchor="middle" transform="matrix(1 0 0 1 11 5)" x="210" y="150">response</text>
  </g>
  <g id="acdl-highlight" transform="matrix(1 0 0 1 -90 74)">
   <ellipse cx="222.1" cy="145.94" fill="none" id="svg_24" rx="45" ry="32" stroke="#ff5656" stroke-dasharray="4,2" stroke-width="2" transform="matrix(0.00256313 -0.693526 0.956031 0.00185935 244.445 225.547)"/>
   <text fill="#ff5656" font-family="Arial" font-size="12" font-weight="600" id="svg_25" text-anchor="middle" transform="matrix(1.15061 0 0 1.20689 -111.418 34.0659)" x="502" y="68.83">ACDL</text>
   <path d="m369.08,336.45l17,10" fill="none" id="svg_26" marker-end="url(#arrowhead-orange)" stroke="#ff5656" stroke-width="1.5" transform="matrix(-1.38335 -0.0479017 0.0464762 -1.42578 937.45 603.35)"/>
  </g>
  <path d="m312.04,251.42c22,-14 52,-14 73,0" fill="none" id="svg_27" marker-end="url(#arrowhead)" stroke="#37474F" stroke-width="1.5" transform="matrix(0.886456 -0.000001539 0.00000136426 1 -138.464 -193)"/>
  <path d="m413.01,338.41c22,-14 52,-14 73,0" fill="none" id="svg_28" marker-end="url(#arrowhead)" stroke="#37474F" stroke-width="1.5" transform="matrix(0.886456 -0.000001539 0.00000136426 1 -45.464 -279)"/>
  <path d="m410.75,338.38c22,-14 52,-14 73,0" fill="none" id="svg_30" marker-end="url(#arrowhead)" stroke="#37474F" stroke-width="1.5" transform="matrix(-0.886358 0.0132098 -0.0149015 -0.999889 754.391 432.352)"/>
  <path d="m413.01,338.41c22,-14 52,-14 73,0" fill="none" id="svg_31" marker-end="url(#arrowhead)" stroke="#37474F" stroke-width="1.5" transform="matrix(-0.886321 -0.015486 0.0174699 -0.999847 562.589 447.237)"/>
  <path d="m252.82,108.44c15.19,18.59 16.85,45.13 4.04,64.58" fill="none" id="svg_32" marker-end="url(#arrowhead)" stroke="#37474F" stroke-width="1.5" transform="matrix(1 0 0 0.73678 27 43.5436)"/>
  <path d="m516.15,304.53c22,-14 52,-14 73,0" fill="none" id="svg_33" marker-end="url(#arrowhead)" stroke="#37474F" stroke-width="1.5" transform="matrix(-0.0271531 -0.654058 0.984896 -0.022947 -45.1725 514.74)"/>
 </g>
</svg>